%
M48
M72
T01C0.01378
T02C0.03200
T03C0.03543
T04C0.04000
%
T01
X43000Y53001
X18000Y63001
X18000Y75612
X78000Y18001
X108000Y38001
X123000Y18001
X133000Y18001
X158000Y113001
X158000Y153001
T02
X98000Y163001
X98000Y153001
X98000Y143001
X98000Y133001
X98000Y123001
X98000Y113001
X98000Y103001
X98000Y93001
X98000Y83001
X98000Y73001
X98000Y63001
X98000Y53001
X98000Y43001
X98000Y33001
X128000Y33001
X128000Y43001
X128000Y53001
X128000Y63001
X128000Y73001
X128000Y83001
X128000Y93001
X128000Y103001
X128000Y113001
X128000Y123001
X128000Y133001
X128000Y143001
X128000Y153001
X128000Y163001
T03
X173000Y24339
X173000Y41662
T04
X8000Y68001
X8000Y78001
X8000Y88001
X8000Y98001
X8000Y108001
X8000Y118001
X8000Y128001
X8000Y138001
X93000Y188001
X103000Y188001
X113000Y188001
X123000Y188001
X133000Y188001
X195500Y138001
X195500Y128001
X195500Y118001
X195500Y108001
X195500Y98001
X195500Y88001
X195500Y78001
X195500Y68001
M30
